# xmcd CD database file
#
# Track frame offsets:
#	200
#	12575
#	26300
#	35975
#
# Disc length: 732 seconds
#
# Revision: 0
# Processed by: cddbd v1.4PL0 Copyright (c) Steve Scherf et al.
# Submitted via: Feurio! 1.66 - http://www.feurio.com
#
DISCID=2c02da04
DTITLE=De Dröppcher - Mer sin Kölsche Cowboys
DYEAR=1900
DGENRE=Country opp Kölsch
TTITLE0=Mer sin Kölsche Cowboys
TTITLE1=Mi Mädche us Kölle
TTITLE2=Country Lady
TTITLE3=Die Fründe vun domols
EXTD=
EXTT0=
EXTT1=
EXTT2=
EXTT3=
PLAYORDER=
